<svg width="25" height="25" viewBox="0 0 25 25" fill="none" xmlns="http://www.w3.org/2000/svg">
<path fill-rule="evenodd" clip-rule="evenodd" d="M17.1827 5.89858C16.9874 5.6413 16.8434 5.35255 16.7579 5.0592C16.2204 3.21432 14.5158 1.86836 12.5002 1.86836C10.4846 1.86836 8.77994 3.21432 8.24243 5.0592C8.15696 5.35255 8.01293 5.6413 7.81769 5.89858H17.1827ZM4.07734 7.19858V23.7004H20.9232V7.19858H4.07734ZM6.99433 4.69556C6.85381 5.17786 6.43864 5.55448 5.93629 5.55448H3.77734C3.22506 5.55448 2.77734 6.0022 2.77734 6.55448V24.0004C2.77734 24.5527 3.22506 25.0004 3.77734 25.0004H21.2232C21.7755 25.0004 22.2232 24.5527 22.2232 24.0004V6.55448C22.2232 6.0022 21.7755 5.55448 21.2232 5.55448H19.0641C18.5617 5.55448 18.1466 5.17786 18.006 4.69556C17.3113 2.31085 15.1092 0.568359 12.5002 0.568359C9.89116 0.568359 7.68912 2.31085 6.99433 4.69556Z" fill="black"/>
</svg>
