<svg width="19" height="23" viewBox="0 0 19 23" fill="none" xmlns="http://www.w3.org/2000/svg">
<path d="M9.49856 10.4034C8.33603 10.4034 7.22112 9.94157 6.39908 9.11953C5.57705 8.2975 5.11523 7.18258 5.11523 6.02005C5.11523 4.85752 5.57705 3.7426 6.39908 2.92057C7.22112 2.09853 8.33603 1.63672 9.49856 1.63672C10.6611 1.63672 11.776 2.09853 12.598 2.92057C13.4201 3.7426 13.8819 4.85752 13.8819 6.02005C13.8819 7.18258 13.4201 8.2975 12.598 9.11953C11.776 9.94157 10.6611 10.4034 9.49856 10.4034Z" stroke="black" stroke-width="1.4" stroke-linecap="round"/>
<path d="M0.732422 21.3622V20.2664C0.732422 18.5226 1.42514 16.8502 2.65819 15.6172C3.89124 14.3841 5.56362 13.6914 7.30742 13.6914H11.6907C13.4345 13.6914 15.1069 14.3841 16.34 15.6172C17.573 16.8502 18.2657 18.5226 18.2657 20.2664V21.3622" stroke="black" stroke-width="1.4" stroke-linecap="round"/>
</svg>
