<svg width="23" height="21" viewBox="0 0 23 21" fill="none" xmlns="http://www.w3.org/2000/svg">
<path d="M21.3483 3.80612L21.3539 3.81662L21.36 3.82692C21.5918 4.22254 21.767 4.6487 21.8805 5.09296L21.8812 5.09573C22.0017 5.55941 22.059 6.03724 22.0516 6.51626L22.0515 6.52385L22.0516 6.53144C22.0573 7.43909 21.8183 8.33151 21.3598 9.11486L21.3553 9.12253L21.3511 9.13031C21.1269 9.53661 20.8419 9.91163 20.5088 10.2391L20.5088 10.2391L20.5046 10.2433L11.5002 19.2477L2.49573 10.2433L2.49382 10.2414C2.15803 9.90816 1.86742 9.53233 1.62943 9.12351C1.40923 8.72365 1.2376 8.2989 1.1182 7.85831C1.00535 7.42414 0.948749 6.97663 0.948749 6.52702H0.948831L0.948668 6.51634C0.941353 6.03727 0.998697 5.5594 1.11915 5.09566L1.11919 5.09567L1.12106 5.08814C1.3458 4.18171 1.8196 3.35622 2.48891 2.70497L2.48895 2.705L2.4949 2.69907C2.98788 2.20774 3.57157 1.81683 4.21356 1.54802C5.50398 1.01908 6.95064 1.01889 8.24117 1.54745C8.83831 1.80068 9.38803 2.15342 9.86694 2.59057L9.91762 2.65139L9.93795 2.67579L9.9604 2.69824L11.0052 3.74302L11.5002 4.23799L11.9951 3.74302L13.0399 2.69824L13.0624 2.67579L13.0827 2.6514L13.1334 2.59058C13.6123 2.15343 14.162 1.80068 14.7591 1.54745C16.0497 1.01889 17.4963 1.01908 18.7867 1.54801C19.4287 1.81682 20.0124 2.20774 20.5054 2.69907L20.5053 2.69914L20.5135 2.707C20.8465 3.02835 21.1281 3.39907 21.3483 3.80612Z" stroke="black" stroke-width="1.4"/>
</svg>
