<svg width="284" height="42" viewBox="0 0 284 42" fill="none" xmlns="http://www.w3.org/2000/svg">
<path d="M3.12119 40.4935C4.0315 40.3069 4.94181 40.0936 6.06019 39.8537C5.56603 39.5072 5.25392 39.2672 4.94181 39.054C-2.1586 34.0423 -1.48237 23.2725 6.16423 19.2205C6.9705 18.794 7.30862 18.3408 7.2566 17.4078C7.17857 16.1815 7.28261 14.9286 7.23059 13.6757C7.17857 12.6094 7.62073 11.9429 8.45301 11.3831C9.10323 10.9566 9.67542 10.3967 10.2736 9.9169C8.63507 8.10417 8.66108 6.95788 10.4297 5.6783C10.2476 5.41172 10.0656 5.14514 9.8835 4.90522C10.0916 3.89222 11.47 3.89222 12.7445 4.90522C12.5624 5.11848 12.3803 5.35841 12.1983 5.57167C13.8108 7.27777 14.279 7.27777 15.8135 5.59833C17.7642 3.4657 23.4601 2.26609 26.035 3.49235C27.7256 4.31875 29 5.54501 29 7.62433C29 9.35709 27.7256 11.0632 25.7229 11.6763C22.1857 12.7693 18.9086 11.8896 16.0476 9.67698C14.0189 8.10417 14.1229 7.94422 12.3023 9.9169C12.7185 10.2901 13.0826 10.8499 13.5768 11.0099C15.1113 11.5697 15.4494 12.716 15.3193 14.1822C15.3193 14.2355 15.3193 14.2621 15.3193 14.3155C15.0593 16.9546 15.0593 19.4604 18.1803 20.4201C24.2144 25.2452 23.9803 34.5488 17.7122 39.054C17.4001 39.2672 17.0879 39.5072 16.5158 39.8804C17.9462 40.2003 19.1426 40.4668 20.3391 40.7334C20.3391 40.8134 20.313 40.8934 20.313 41C14.6171 41 8.89516 41 3.19922 41C3.17321 40.8134 3.1472 40.6534 3.12119 40.4935Z" fill="black"/>
<path d="M42.744 27.32C42.3813 27.32 42.0933 27.2133 41.88 27C41.6667 26.7653 41.56 26.4453 41.56 26.04V8.44C41.56 7.24533 41.912 6.30667 42.616 5.624C43.3413 4.94133 44.344 4.6 45.624 4.6H51.064C57.144 4.6 60.184 7.14933 60.184 12.248C60.184 14.5947 59.4053 16.408 57.848 17.688C56.312 18.9467 54.0933 19.576 51.192 19.576H43.96V26.04C43.96 26.4453 43.8533 26.7653 43.64 27C43.4267 27.2133 43.128 27.32 42.744 27.32ZM51.192 17.56C53.2613 17.56 54.8613 17.1547 55.992 16.344C57.144 15.5333 57.72 14.168 57.72 12.248C57.72 10.2427 57.1653 8.80267 56.056 7.928C54.9467 7.032 53.336 6.584 51.224 6.584H45.656C45.144 6.584 44.728 6.75467 44.408 7.096C44.1093 7.43733 43.96 7.88533 43.96 8.44V17.56H51.192ZM70.58 27.32C67.8067 27.32 65.6627 26.6053 64.148 25.176C62.6333 23.7467 61.876 21.72 61.876 19.096C61.876 16.5787 62.644 14.6053 64.18 13.176C65.716 11.7253 67.8173 11 70.484 11C72.1267 11 73.588 11.2667 74.868 11.8C76.148 12.312 77.14 13.048 77.844 14.008C78.5693 14.9467 78.932 16.024 78.932 17.24C78.932 18.136 78.676 18.8293 78.164 19.32C77.6733 19.8107 76.9907 20.056 76.116 20.056H64.276C64.276 21.6987 64.8307 22.9893 65.94 23.928C67.0493 24.8453 68.596 25.304 70.58 25.304C71.796 25.304 72.8413 25.176 73.716 24.92C74.5907 24.6427 75.412 24.2053 76.18 23.608C76.5853 23.2667 76.916 23.096 77.172 23.096C77.364 23.096 77.5453 23.1813 77.716 23.352C78.0147 23.608 78.164 23.8747 78.164 24.152C78.164 24.3653 78.036 24.6 77.78 24.856C76.9053 25.688 75.8813 26.3067 74.708 26.712C73.5347 27.1173 72.1587 27.32 70.58 27.32ZM75.412 18.168C75.796 18.168 76.084 18.0933 76.276 17.944C76.468 17.7733 76.564 17.4747 76.564 17.048C76.564 16.28 76.308 15.5867 75.796 14.968C75.284 14.3493 74.5587 13.8693 73.62 13.528C72.7027 13.1867 71.6573 13.016 70.484 13.016C68.5853 13.016 67.0813 13.4853 65.972 14.424C64.884 15.3413 64.34 16.5893 64.34 18.168H75.412ZM83.7365 27.32C83.3738 27.32 83.0858 27.2133 82.8725 27C82.6805 26.7653 82.5845 26.4453 82.5845 26.04V12.28C82.5845 11.8747 82.6805 11.5653 82.8725 11.352C83.0645 11.1173 83.3525 11 83.7365 11C84.0992 11 84.3765 11.1173 84.5685 11.352C84.7818 11.5653 84.8885 11.8747 84.8885 12.28V14.2C86.3392 12.28 88.3445 11.32 90.9045 11.32H91.7045C92.1098 11.32 92.4298 11.416 92.6645 11.608C92.8992 11.7787 93.0165 12.024 93.0165 12.344C93.0165 12.664 92.8992 12.9093 92.6645 13.08C92.4298 13.2507 92.1098 13.336 91.7045 13.336H90.8085C88.9952 13.336 87.5552 13.8587 86.4885 14.904C85.4432 15.928 84.9205 17.3253 84.9205 19.096V26.04C84.9205 26.424 84.8138 26.7333 84.6005 26.968C84.4085 27.2027 84.1205 27.32 83.7365 27.32ZM106.177 4.792C106.39 4.984 106.497 5.21866 106.497 5.496C106.497 5.77333 106.379 6.02933 106.145 6.264C105.931 6.43467 105.729 6.52 105.537 6.52C105.259 6.52 104.886 6.38133 104.417 6.104C103.649 5.656 102.827 5.432 101.953 5.432C100.374 5.432 99.5845 6.28533 99.5845 7.992V11.32H104.129C104.961 11.32 105.377 11.6507 105.377 12.312C105.377 12.6107 105.27 12.8453 105.057 13.016C104.843 13.1867 104.534 13.272 104.129 13.272H99.5845V26.04C99.5845 26.4453 99.4778 26.7653 99.2645 27C99.0725 27.2133 98.7952 27.32 98.4325 27.32C98.0698 27.32 97.7818 27.2133 97.5685 27C97.3552 26.7653 97.2485 26.4453 97.2485 26.04V13.272H95.7125C95.3072 13.272 94.9872 13.1867 94.7525 13.016C94.5392 12.8453 94.4325 12.6107 94.4325 12.312C94.4325 11.6507 94.8592 11.32 95.7125 11.32H97.2485V8.12C97.2485 6.69067 97.6645 5.54933 98.4965 4.696C99.3498 3.82133 100.47 3.384 101.857 3.384C102.731 3.384 103.542 3.512 104.289 3.768C105.035 4.00267 105.665 4.344 106.177 4.792ZM114.894 27.32C112.803 27.32 111.16 26.7227 109.966 25.528C108.792 24.3333 108.206 22.6693 108.206 20.536V12.28C108.206 11.8747 108.312 11.5653 108.526 11.352C108.739 11.1173 109.027 11 109.39 11C109.752 11 110.03 11.1173 110.222 11.352C110.435 11.5653 110.542 11.8747 110.542 12.28V20.536C110.542 22.0507 110.947 23.224 111.758 24.056C112.568 24.888 113.699 25.304 115.15 25.304C116.302 25.304 117.326 25.048 118.222 24.536C119.118 24.024 119.811 23.3093 120.302 22.392C120.814 21.4747 121.07 20.4187 121.07 19.224V12.28C121.07 11.8747 121.166 11.5653 121.358 11.352C121.571 11.1173 121.87 11 122.254 11C122.616 11 122.894 11.1173 123.086 11.352C123.299 11.5653 123.406 11.8747 123.406 12.28V26.04C123.406 26.4453 123.299 26.7653 123.086 27C122.894 27.2133 122.616 27.32 122.254 27.32C121.87 27.32 121.571 27.2027 121.358 26.968C121.166 26.7333 121.07 26.424 121.07 26.04V24.152C120.28 25.176 119.363 25.9653 118.318 26.52C117.272 27.0533 116.131 27.32 114.894 27.32ZM129.016 27.32C128.654 27.32 128.366 27.2133 128.152 27C127.96 26.7653 127.864 26.4453 127.864 26.04V12.28C127.864 11.8747 127.96 11.5653 128.152 11.352C128.366 11.1173 128.654 11 129.016 11C129.4 11 129.688 11.1173 129.88 11.352C130.094 11.5867 130.2 11.896 130.2 12.28V14.104C130.776 13.144 131.512 12.3867 132.408 11.832C133.326 11.2773 134.286 11 135.288 11C136.291 11 137.176 11.2773 137.944 11.832C138.712 12.3653 139.278 13.1227 139.64 14.104C140.387 13.1013 141.208 12.3333 142.104 11.8C143.022 11.2667 143.971 11 144.952 11C146.638 11 147.907 11.5227 148.76 12.568C149.614 13.592 150.04 15.1173 150.04 17.144V26.04C150.04 26.4453 149.934 26.7653 149.72 27C149.507 27.2133 149.219 27.32 148.856 27.32C148.088 27.32 147.704 26.8933 147.704 26.04V17.08C147.704 15.7147 147.47 14.7013 147 14.04C146.552 13.3573 145.774 13.016 144.664 13.016C143.726 13.016 142.883 13.304 142.136 13.88C141.39 14.4347 140.792 15.2453 140.344 16.312V26.04C140.344 26.4453 140.238 26.7653 140.024 27C139.811 27.2133 139.523 27.32 139.16 27.32C138.798 27.32 138.51 27.2133 138.296 27C138.104 26.7653 138.008 26.4453 138.008 26.04V17.56C138.008 16.088 137.742 14.968 137.208 14.2C136.696 13.4107 135.96 13.016 135 13.016C134.083 13.016 133.262 13.272 132.536 13.784C131.811 14.2747 131.235 14.9573 130.808 15.832C130.403 16.7067 130.2 17.6987 130.2 18.808V26.04C130.2 26.424 130.094 26.7333 129.88 26.968C129.688 27.2027 129.4 27.32 129.016 27.32ZM162.143 27.32C159.369 27.32 157.225 26.6053 155.711 25.176C154.196 23.7467 153.439 21.72 153.439 19.096C153.439 16.5787 154.207 14.6053 155.743 13.176C157.279 11.7253 159.38 11 162.047 11C163.689 11 165.151 11.2667 166.431 11.8C167.711 12.312 168.703 13.048 169.407 14.008C170.132 14.9467 170.495 16.024 170.495 17.24C170.495 18.136 170.239 18.8293 169.727 19.32C169.236 19.8107 168.553 20.056 167.679 20.056H155.839C155.839 21.6987 156.393 22.9893 157.503 23.928C158.612 24.8453 160.159 25.304 162.143 25.304C163.359 25.304 164.404 25.176 165.279 24.92C166.153 24.6427 166.975 24.2053 167.743 23.608C168.148 23.2667 168.479 23.096 168.735 23.096C168.927 23.096 169.108 23.1813 169.279 23.352C169.577 23.608 169.727 23.8747 169.727 24.152C169.727 24.3653 169.599 24.6 169.343 24.856C168.468 25.688 167.444 26.3067 166.271 26.712C165.097 27.1173 163.721 27.32 162.143 27.32ZM166.975 18.168C167.359 18.168 167.647 18.0933 167.839 17.944C168.031 17.7733 168.127 17.4747 168.127 17.048C168.127 16.28 167.871 15.5867 167.359 14.968C166.847 14.3493 166.121 13.8693 165.183 13.528C164.265 13.1867 163.22 13.016 162.047 13.016C160.148 13.016 158.644 13.4853 157.535 14.424C156.447 15.3413 155.903 16.5893 155.903 18.168H166.975ZM183.555 27.32C181.507 27.32 179.619 26.9787 177.891 26.296C176.184 25.592 174.851 24.632 173.891 23.416C173.72 23.2027 173.635 22.9787 173.635 22.744C173.635 22.4453 173.795 22.1573 174.115 21.88C174.286 21.752 174.467 21.688 174.659 21.688C175.043 21.688 175.384 21.8693 175.683 22.232C176.558 23.192 177.656 23.9387 178.979 24.472C180.323 24.984 181.848 25.24 183.555 25.24C185.432 25.24 186.883 24.8987 187.907 24.216C188.931 23.512 189.443 22.52 189.443 21.24C189.443 20.1307 188.942 19.2347 187.939 18.552C186.958 17.8693 185.283 17.2613 182.915 16.728C179.822 16.0453 177.592 15.192 176.227 14.168C174.883 13.1227 174.211 11.7467 174.211 10.04C174.211 8.26933 174.958 6.872 176.451 5.848C177.966 4.80267 180.003 4.28 182.563 4.28C184.504 4.28 186.254 4.62133 187.811 5.304C189.39 5.98667 190.51 6.904 191.171 8.056C191.299 8.26933 191.363 8.472 191.363 8.664C191.363 9.00533 191.182 9.304 190.819 9.56C190.67 9.64533 190.499 9.688 190.307 9.688C189.838 9.688 189.475 9.50667 189.219 9.144C188.6 8.248 187.726 7.56533 186.595 7.096C185.464 6.60533 184.12 6.36 182.563 6.36C178.616 6.36 176.643 7.58667 176.643 10.04C176.643 10.7867 176.846 11.416 177.251 11.928C177.656 12.4187 178.307 12.8667 179.203 13.272C180.12 13.656 181.39 14.04 183.011 14.424C186.168 15.1707 188.44 16.0773 189.827 17.144C191.214 18.1893 191.907 19.5547 191.907 21.24C191.907 23.1173 191.15 24.6 189.635 25.688C188.142 26.776 186.115 27.32 183.555 27.32ZM197.08 27.32C196.718 27.32 196.43 27.2133 196.216 27C196.024 26.7653 195.928 26.4453 195.928 26.04V3.992C195.928 3.58667 196.024 3.27733 196.216 3.064C196.43 2.82933 196.718 2.712 197.08 2.712C197.443 2.712 197.731 2.82933 197.944 3.064C198.158 3.27733 198.264 3.58667 198.264 3.992V14.168C199.054 13.1227 200.003 12.3333 201.112 11.8C202.243 11.2667 203.47 11 204.792 11C206.819 11 208.376 11.5653 209.464 12.696C210.574 13.8267 211.128 15.448 211.128 17.56V26.04C211.128 26.4453 211.022 26.7653 210.808 27C210.595 27.2133 210.307 27.32 209.944 27.32C209.56 27.32 209.272 27.2133 209.08 27C208.888 26.7653 208.792 26.4453 208.792 26.04V17.56C208.792 14.5307 207.363 13.016 204.504 13.016C202.627 13.016 201.112 13.5707 199.96 14.68C198.83 15.7893 198.264 17.2613 198.264 19.096V26.04C198.264 26.424 198.158 26.7333 197.944 26.968C197.752 27.2027 197.464 27.32 197.08 27.32ZM222.958 27.32C221.102 27.32 219.513 26.9467 218.19 26.2C216.867 25.4533 215.865 24.4613 215.182 23.224C214.521 21.9653 214.19 20.6107 214.19 19.16C214.19 17.7093 214.521 16.3653 215.182 15.128C215.865 13.8693 216.867 12.8667 218.19 12.12C219.513 11.3733 221.102 11 222.958 11C224.814 11 226.393 11.3733 227.694 12.12C229.017 12.8667 230.009 13.8693 230.67 15.128C231.353 16.3653 231.694 17.7093 231.694 19.16C231.694 20.6107 231.353 21.9653 230.67 23.224C230.009 24.4613 229.017 25.4533 227.694 26.2C226.393 26.9467 224.814 27.32 222.958 27.32ZM222.958 25.304C224.878 25.304 226.414 24.76 227.566 23.672C228.739 22.584 229.326 21.08 229.326 19.16C229.326 17.24 228.739 15.736 227.566 14.648C226.414 13.56 224.878 13.016 222.958 13.016C221.017 13.016 219.459 13.56 218.286 14.648C217.134 15.736 216.558 17.24 216.558 19.16C216.558 21.08 217.134 22.584 218.286 23.672C219.459 24.76 221.017 25.304 222.958 25.304ZM236.485 36.568C236.122 36.568 235.834 36.4507 235.621 36.216C235.429 36.0027 235.333 35.6933 235.333 35.288V12.28C235.333 11.8747 235.429 11.5653 235.621 11.352C235.834 11.1173 236.122 11 236.485 11C236.869 11 237.157 11.1173 237.349 11.352C237.562 11.5867 237.669 11.896 237.669 12.28V14.328C239.312 12.1093 241.68 11 244.773 11C247.354 11 249.381 11.7147 250.853 13.144C252.346 14.5733 253.093 16.536 253.093 19.032C253.093 20.7173 252.752 22.1893 252.069 23.448C251.386 24.6853 250.405 25.6453 249.125 26.328C247.866 26.9893 246.384 27.32 244.677 27.32C243.205 27.32 241.904 27.064 240.773 26.552C239.664 26.0187 238.64 25.1867 237.701 24.056V35.288C237.701 35.672 237.594 35.9813 237.381 36.216C237.168 36.4507 236.869 36.568 236.485 36.568ZM244.517 25.304C246.458 25.304 247.973 24.7493 249.061 23.64C250.17 22.5093 250.725 20.952 250.725 18.968C250.725 17.048 250.181 15.576 249.093 14.552C248.026 13.528 246.49 13.016 244.485 13.016C242.373 13.016 240.709 13.56 239.493 14.648C238.277 15.7147 237.669 17.176 237.669 19.032C237.669 20.2693 237.946 21.368 238.501 22.328C239.077 23.2667 239.877 24.0027 240.901 24.536C241.946 25.048 243.152 25.304 244.517 25.304Z" fill="black"/>
<path d="M256.582 27.126C256.302 27.126 256.069 27.0373 255.882 26.86C255.695 26.6733 255.602 26.44 255.602 26.16C255.602 25.8893 255.695 25.6607 255.882 25.474C256.078 25.278 256.311 25.18 256.582 25.18C256.853 25.18 257.086 25.278 257.282 25.474C257.478 25.6607 257.576 25.8893 257.576 26.16C257.576 26.4307 257.478 26.6593 257.282 26.846C257.086 27.0327 256.853 27.126 256.582 27.126ZM261.952 27.126C261.374 27.126 260.856 27.0233 260.398 26.818C259.95 26.6033 259.6 26.3093 259.348 25.936C259.096 25.5533 258.97 25.1193 258.97 24.634V22.464C258.97 21.96 259.092 21.512 259.334 21.12C259.586 20.728 259.936 20.4247 260.384 20.21C260.842 19.986 261.36 19.874 261.938 19.874C262.48 19.874 262.96 19.9533 263.38 20.112C263.8 20.2613 264.127 20.476 264.36 20.756C264.603 21.036 264.724 21.358 264.724 21.722C264.724 21.9833 264.617 22.1933 264.402 22.352C264.188 22.5013 263.917 22.5667 263.59 22.548C263.59 22.1187 263.436 21.7687 263.128 21.498C262.83 21.2273 262.442 21.092 261.966 21.092C261.49 21.092 261.103 21.2227 260.804 21.484C260.506 21.7453 260.356 22.086 260.356 22.506V24.55C260.356 24.9513 260.506 25.278 260.804 25.53C261.112 25.782 261.509 25.908 261.994 25.908C262.47 25.908 262.858 25.7727 263.156 25.502C263.464 25.2313 263.618 24.886 263.618 24.466C263.954 24.438 264.23 24.4987 264.444 24.648C264.659 24.7973 264.766 25.0027 264.766 25.264C264.766 25.628 264.645 25.95 264.402 26.23C264.169 26.51 263.838 26.7293 263.408 26.888C262.979 27.0467 262.494 27.126 261.952 27.126ZM268.676 27.126C268.088 27.126 267.561 27.0187 267.094 26.804C266.627 26.5893 266.259 26.2953 265.988 25.922C265.727 25.5393 265.596 25.1147 265.596 24.648V22.45C265.596 21.974 265.727 21.54 265.988 21.148C266.249 20.756 266.613 20.448 267.08 20.224C267.547 19.9907 268.079 19.874 268.676 19.874C269.273 19.874 269.805 19.9907 270.272 20.224C270.739 20.448 271.103 20.756 271.364 21.148C271.635 21.54 271.77 21.974 271.77 22.45V24.648C271.77 25.1147 271.635 25.5393 271.364 25.922C271.103 26.2953 270.734 26.5893 270.258 26.804C269.791 27.0187 269.264 27.126 268.676 27.126ZM268.676 25.922C269.208 25.922 269.628 25.8007 269.936 25.558C270.244 25.306 270.398 24.9747 270.398 24.564V22.506C270.398 22.0767 270.239 21.7313 269.922 21.47C269.614 21.2087 269.199 21.078 268.676 21.078C268.153 21.078 267.733 21.2087 267.416 21.47C267.108 21.7313 266.954 22.0767 266.954 22.506V24.564C266.954 24.9747 267.108 25.306 267.416 25.558C267.724 25.8007 268.144 25.922 268.676 25.922ZM273.205 21.008C273.205 20.252 273.649 19.874 274.535 19.874V20.756C274.442 20.8493 274.339 20.98 274.227 21.148L274.297 21.204C274.596 20.7747 274.909 20.448 275.235 20.224C275.562 19.9907 275.949 19.874 276.397 19.874C277.237 19.874 277.811 20.2753 278.119 21.078C278.642 20.2753 279.351 19.874 280.247 19.874C280.901 19.874 281.409 20.098 281.773 20.546C282.147 20.994 282.333 21.5773 282.333 22.296V26.174C282.333 26.5007 282.217 26.7433 281.983 26.902C281.759 27.0513 281.414 27.126 280.947 27.126V22.394C280.947 21.5073 280.588 21.064 279.869 21.064C279.477 21.064 279.141 21.1993 278.861 21.47C278.591 21.7313 278.455 22.1 278.455 22.576V26.174C278.455 26.51 278.343 26.7527 278.119 26.902C277.895 27.0513 277.555 27.126 277.097 27.126V22.394C277.097 21.9833 277.009 21.6613 276.831 21.428C276.654 21.1853 276.379 21.064 276.005 21.064C275.595 21.064 275.254 21.2133 274.983 21.512C274.722 21.8013 274.591 22.17 274.591 22.618V26.174C274.591 26.5007 274.475 26.7433 274.241 26.902C274.017 27.0513 273.672 27.126 273.205 27.126V21.008Z" fill="black"/>
<path d="M42.828 34.015V41H41.827V34.015H39.231V33.124H45.402V34.015H42.828ZM48.3677 37.612V41H47.3667V33.124H50.9857C51.8217 33.124 52.445 33.3293 52.8557 33.74C53.215 34.0993 53.3947 34.598 53.3947 35.236C53.3947 35.6833 53.2957 36.0537 53.0977 36.347C52.907 36.6403 52.588 36.897 52.1407 37.117C52.5 37.2563 52.764 37.4433 52.9327 37.678C53.1014 37.92 53.1967 38.415 53.2187 39.163C53.2334 39.713 53.2664 40.0833 53.3177 40.274C53.3764 40.4573 53.501 40.615 53.6917 40.747V41H52.4817C52.3204 40.6627 52.2397 40.307 52.2397 39.933L52.2507 38.701C52.2507 38.6203 52.2177 38.4957 52.1517 38.327C52.0857 38.1583 52.0234 38.0373 51.9647 37.964C51.7667 37.7293 51.4294 37.612 50.9527 37.612H48.3677ZM48.3677 36.721H50.7987C51.8327 36.721 52.3497 36.27 52.3497 35.368C52.3497 34.466 51.8327 34.015 50.7987 34.015H48.3677V36.721ZM60.8965 33.124H61.8975V38.525C61.8975 39.3757 61.5859 40.0357 60.9625 40.505C60.4272 40.9157 59.7269 41.121 58.8615 41.121C57.8642 41.121 57.0942 40.8607 56.5515 40.34C56.0822 39.878 55.8475 39.273 55.8475 38.525V33.124H56.8485V38.525C56.8485 39.0677 57.0245 39.4893 57.3765 39.79C57.7285 40.0833 58.2235 40.23 58.8615 40.23C59.5362 40.23 60.0569 40.0613 60.4235 39.724C60.7389 39.4233 60.8965 39.0237 60.8965 38.525V33.124ZM69.9384 35.39H68.9924C68.9704 34.3633 68.314 33.85 67.0234 33.85C66.4954 33.85 66.07 33.971 65.7474 34.213C65.4247 34.4477 65.2634 34.7593 65.2634 35.148C65.2634 35.4413 65.3587 35.676 65.5494 35.852C65.7474 36.0207 66.0847 36.1673 66.5614 36.292L68.4314 36.776C69.6194 37.0913 70.2134 37.7513 70.2134 38.756C70.2134 39.482 69.9237 40.0723 69.3444 40.527C68.831 40.923 68.094 41.121 67.1334 41.121C65.916 41.121 65.0324 40.7543 64.4824 40.021C64.189 39.625 64.035 39.0933 64.0204 38.426H64.9664V38.448C64.9664 39.02 65.1607 39.4637 65.5494 39.779C65.9454 40.087 66.4954 40.241 67.1994 40.241C67.8447 40.241 68.325 40.1347 68.6404 39.922C69.0144 39.6653 69.2014 39.306 69.2014 38.844C69.2014 38.2573 68.721 37.843 67.7604 37.601L65.8024 37.095C64.7757 36.831 64.2624 36.226 64.2624 35.28C64.2624 34.532 64.5447 33.9527 65.1094 33.542C65.6007 33.1827 66.2497 33.003 67.0564 33.003C68.2004 33.003 69.018 33.3367 69.5094 34.004C69.7954 34.3927 69.9384 34.8143 69.9384 35.269C69.9384 35.291 69.9384 35.3313 69.9384 35.39ZM75.3094 34.015V41H74.3084V34.015H71.7124V33.124H77.8834V34.015H75.3094ZM80.8161 37.414V40.109H85.4581V41H79.8151V33.124H85.2711V34.015H80.8161V36.523H85.1061V37.414H80.8161ZM87.7821 41V33.124H90.8181C91.8814 33.124 92.6991 33.52 93.2711 34.312C93.7697 35.0087 94.0191 35.9253 94.0191 37.062C94.0191 38.3673 93.6964 39.372 93.0511 40.076C92.4864 40.692 91.7421 41 90.8181 41H87.7821ZM88.7831 40.109H90.6421C92.2261 40.109 93.0181 39.0933 93.0181 37.062C93.0181 35.0307 92.2261 34.015 90.6421 34.015H88.7831V40.109ZM102.396 33.003C103.614 33.003 104.574 33.4247 105.278 34.268C105.887 35.0013 106.191 35.9327 106.191 37.062C106.191 38.36 105.799 39.3867 105.014 40.142C104.325 40.7947 103.452 41.121 102.396 41.121C101.172 41.121 100.207 40.6993 99.5034 39.856C98.8948 39.1227 98.5904 38.1913 98.5904 37.062C98.5904 35.764 98.9864 34.7373 99.7784 33.982C100.46 33.3293 101.333 33.003 102.396 33.003ZM102.385 33.894C101.491 33.894 100.783 34.2203 100.262 34.873C99.8151 35.445 99.5914 36.1747 99.5914 37.062C99.5914 38.0813 99.8811 38.8843 100.46 39.471C100.966 39.977 101.608 40.23 102.385 40.23C103.287 40.23 103.999 39.9037 104.519 39.251C104.967 38.679 105.19 37.9493 105.19 37.062C105.19 36.0427 104.901 35.2397 104.321 34.653C103.815 34.147 103.17 33.894 102.385 33.894ZM114.328 33.124V41H113.206L109.125 34.609V41H108.179V33.124H109.268L113.382 39.559V33.124H114.328ZM117.793 33.124V40.109H121.676V41H116.792V33.124H117.793ZM124.799 33.124V41H123.776V33.124H124.799ZM133.449 33.124V41H132.327L128.246 34.609V41H127.3V33.124H128.389L132.503 39.559V33.124H133.449ZM137.013 37.414V40.109H141.655V41H136.012V33.124H141.468V34.015H137.013V36.523H141.303V37.414H137.013ZM152.247 35.39H151.301C151.279 34.3633 150.622 33.85 149.332 33.85C148.804 33.85 148.378 33.971 148.056 34.213C147.733 34.4477 147.572 34.7593 147.572 35.148C147.572 35.4413 147.667 35.676 147.858 35.852C148.056 36.0207 148.393 36.1673 148.87 36.292L150.74 36.776C151.928 37.0913 152.522 37.7513 152.522 38.756C152.522 39.482 152.232 40.0723 151.653 40.527C151.139 40.923 150.402 41.121 149.442 41.121C148.224 41.121 147.341 40.7543 146.791 40.021C146.497 39.625 146.343 39.0933 146.329 38.426H147.275V38.448C147.275 39.02 147.469 39.4637 147.858 39.779C148.254 40.087 148.804 40.241 149.508 40.241C150.153 40.241 150.633 40.1347 150.949 39.922C151.323 39.6653 151.51 39.306 151.51 38.844C151.51 38.2573 151.029 37.843 150.069 37.601L148.111 37.095C147.084 36.831 146.571 36.226 146.571 35.28C146.571 34.532 146.853 33.9527 147.418 33.542C147.909 33.1827 148.558 33.003 149.365 33.003C150.509 33.003 151.326 33.3367 151.818 34.004C152.104 34.3927 152.247 34.8143 152.247 35.269C152.247 35.291 152.247 35.3313 152.247 35.39ZM155.891 33.124V41H154.868V33.124H155.891ZM164.542 33.124V41H163.42L159.339 34.609V41H158.393V33.124H159.482L163.596 39.559V33.124H164.542ZM173.286 35.533H172.252C172.142 35.005 171.952 34.62 171.68 34.378C171.328 34.0553 170.815 33.894 170.14 33.894C169.319 33.894 168.685 34.2167 168.237 34.862C167.849 35.4267 167.654 36.1673 167.654 37.084C167.654 38.118 167.915 38.921 168.435 39.493C168.897 39.9843 169.491 40.23 170.217 40.23C171.105 40.23 171.717 39.9037 172.054 39.251C172.208 38.9503 172.329 38.5507 172.417 38.052H173.451C173.209 40.098 172.135 41.121 170.228 41.121C169.202 41.121 168.391 40.8203 167.797 40.219C167.035 39.449 166.653 38.415 166.653 37.117C166.653 35.8557 167.02 34.818 167.753 34.004C168.355 33.3367 169.183 33.003 170.239 33.003C171.955 33.003 172.971 33.8463 173.286 35.533ZM176.674 37.414V40.109H181.316V41H175.673V33.124H181.129V34.015H176.674V36.523H180.964V37.414H176.674ZM186.199 33.696C186.888 33.2487 187.585 33.025 188.289 33.025C188.978 33.025 189.495 33.2267 189.84 33.63C190.14 33.982 190.291 34.4513 190.291 35.038C190.291 35.5 190.173 35.951 189.939 36.391C189.726 36.765 189.352 37.271 188.817 37.909L187.266 39.669L186.815 40.219H190.423V40.527L190.038 41H185.825V40.208L186.661 39.207L188.355 37.238C188.692 36.8347 188.93 36.4973 189.07 36.226C189.26 35.8593 189.356 35.5037 189.356 35.159C189.356 34.7777 189.242 34.4697 189.015 34.235C188.787 34.0003 188.483 33.883 188.102 33.883C187.654 33.883 187.189 34.0553 186.705 34.4L186.199 33.696ZM194.453 41.143C193.478 41.143 192.781 40.6333 192.363 39.614C192.092 38.9613 191.956 38.151 191.956 37.183C191.956 35.9657 192.169 34.961 192.594 34.169C193.012 33.377 193.632 32.981 194.453 32.981C195.253 32.981 195.865 33.366 196.29 34.136C196.738 34.9207 196.961 35.9253 196.961 37.15C196.961 38.3013 196.778 39.2253 196.411 39.922C195.979 40.736 195.326 41.143 194.453 41.143ZM196.004 37.172C196.004 34.9353 195.487 33.817 194.453 33.817C193.427 33.817 192.913 34.928 192.913 37.15C192.913 38.0813 192.998 38.7817 193.166 39.251C193.408 39.9477 193.837 40.296 194.453 40.296C195.487 40.296 196.004 39.2547 196.004 37.172ZM198.857 33.696C199.546 33.2487 200.243 33.025 200.947 33.025C201.636 33.025 202.153 33.2267 202.498 33.63C202.799 33.982 202.949 34.4513 202.949 35.038C202.949 35.5 202.832 35.951 202.597 36.391C202.384 36.765 202.01 37.271 201.475 37.909L199.924 39.669L199.473 40.219H203.081V40.527L202.696 41H198.483V40.208L199.319 39.207L201.013 37.238C201.35 36.8347 201.589 36.4973 201.728 36.226C201.919 35.8593 202.014 35.5037 202.014 35.159C202.014 34.7777 201.9 34.4697 201.673 34.235C201.446 34.0003 201.141 33.883 200.76 33.883C200.313 33.883 199.847 34.0553 199.363 34.4L198.857 33.696ZM208.619 33.124V38.239H209.785V39.086H208.619V40.582L208.146 41H207.684V39.086H204.461V38.261L207.607 33.124H208.619ZM207.684 34.356L205.385 38.239H207.684V34.356Z" fill="#585858"/>
</svg>
